<?xml version="1.0" encoding="UTF-8"?>
<svg viewBox="0 0 640 480" xmlns="http://www.w3.org/2000/svg">
 <defs>
  <linearGradient id="a" y2="1">
   <stop stop-color="#f00" offset="0"/>
   <stop stop-color="#ff0" offset="1"/>
  </linearGradient>
  <mask id="h" maskUnits="userSpaceOnUse">
   <path d="m27.388 13.356c0.001131 1.5642-2.3436 2.8326-5.2364 2.8326s-5.2375-1.2684-5.2364-2.8326c-0.001131-1.5642 2.3436-2.8326 5.2364-2.8326s5.2375 1.2684 5.2364 2.8326z" fill="#fff" stroke="#2e3436" stroke-linecap="round" stroke-linejoin="round" stroke-width=".1"/>
  </mask>
  <mask id="e" maskUnits="userSpaceOnUse">
   <path d="m44.856 14.452c0 1.5638-2.4486 2.8315-5.4691 2.8315s-5.4691-1.2677-5.4691-2.8315 2.4486-2.8315 5.4691-2.8315 5.4691 1.2677 5.4691 2.8315z" fill="#fff" stroke="#2e3436" stroke-linecap="round" stroke-linejoin="round" stroke-width=".1"/>
  </mask>
  <mask id="d" maskUnits="userSpaceOnUse">
   <path d="m53.468 23.538c0 1.7352-2.5702 3.1418-5.7406 3.1418s-5.7406-1.4066-5.7406-3.1418 2.5702-3.1418 5.7406-3.1418 5.7406 1.4066 5.7406 3.1418z" fill="#fff" stroke="#2e3436" stroke-linecap="round" stroke-linejoin="round" stroke-width=".1"/>
  </mask>
  <mask id="f" maskUnits="userSpaceOnUse">
   <path d="m41.896 29.861c0 2.0351-2.9869 3.6848-6.6715 3.6848s-6.6715-1.6498-6.6715-3.6848c0-2.0351 2.9869-3.6848 6.6715-3.6848s6.6715 1.6498 6.6715 3.6848z" fill="#fff" stroke="#2e3436" stroke-linecap="round" stroke-linejoin="round" stroke-width=".1"/>
  </mask>
  <mask id="g" maskUnits="userSpaceOnUse">
   <path d="m25.134 22.896c9.1e-4 1.7355-3.021 3.1426-6.7491 3.1426s-6.75-1.4071-6.7491-3.1426c-9e-4 -1.7355 3.021-3.1426 6.7491-3.1426s6.75 1.4071 6.7491 3.1426z" fill="#fff" stroke="#2e3436" stroke-linecap="round" stroke-linejoin="round" stroke-width=".1"/>
  </mask>
  <radialGradient id="b" cx=".47656" cy=".52344">
   <stop stop-color="#ff7f00" offset="0"/>
   <stop stop-color="#7f0000" offset="1"/>
  </radialGradient>
  <radialGradient id="c" cx=".47656" cy=".52344">
   <stop stop-color="#7f0000" offset="0"/>
   <stop stop-color="#ffa100" offset="1"/>
  </radialGradient>
 </defs>
 <g fill="url(#b)" stroke="#2e3436" stroke-linecap="round" stroke-linejoin="round" stroke-width=".095">
  <path d="m320.44 245.3c-4.7684 41.819-64.984 62.86-134.49 46.997-69.511-15.864-122-62.625-117.23-104.44 4.7685-41.82 64.984-62.861 134.49-46.997 69.511 15.864 122 62.625 117.23 104.44z"/>
  <path d="m320.88 236.6c-4.7351 41.819-64.529 62.86-133.55 46.997-69.025-15.864-121.14-62.625-116.41-104.44 4.7352-41.82 64.529-62.861 133.55-46.997 69.025 15.864 121.14 62.625 116.41 104.44z"/>
 </g>
 <g fill="url(#a)" stroke="#2e3436" stroke-width=".1">
  <path d="m85.646 174.09s-3.0898 18.305 8.3866 37.068 24.277 43.017 77.245 58.576 64.007 13.413 76.362 12.909c11.672-0.47598 38.7 2.0444 48.996 4.9384 7.7549 2.1798 13.684 2.7457 14.566 9.1525 0.88294 6.4067-12.359 6.4067-22.953 13.271-10.594 6.8644-15.449 18.305-19.863 31.576-4.4139 13.271-7.0624 18.763-2.6483 25.627 4.4141 6.8644 18.539 21.508 31.781 27 13.242 5.4915 27.808 6.4068 27.808 6.4068l5.2969-24.254s-17.215-0.91522-33.988-12.356-16.773-18.305-16.773-21.508c0-3.2034 7.5039-7.322 15.89-10.983 8.3866-3.661 15.449-0.91528 18.098-12.356 2.6483-11.441 7.5039-29.746 6.621-38.44-0.88275-8.6949-6.1797-13.271-16.332-17.847-10.152-4.5762-20.304-6.8644-31.781-6.8644-11.476 0-52.086 3.2034-84.308-7.7796s-75.921-40.728-85.191-51.712c-9.2695-10.983-13.959-16.532-17.215-22.424z"/>
  <path d="m87.853 180.25s0.64215 16.017 7.0063 27.186c4.5461 7.978 12.287 19.337 12.287 19.337l5.8559-17.437s-4.2294-2.6183-12.734-10.531c-7.5628-7.0364-9.9877-15.179-12.415-18.554z"/>
  <path d="m116.37 211.58l-6.3295 18.481 11.106 10.094 6.399-18.076-11.176-10.499z"/>
  <path d="m130.47 224.67l12.806 7.901-6.9538 18.337-12.233-8.162 6.3814-18.076z"/>
  <path d="m147.34 234.97l15.372 5.4641-6.2346 19.92-15.597-7.4426 6.4597-17.942z"/>
  <path d="m166.88 241.38l16.985 6.9119-5.9229 19.53-17.462-5.8472 6.3994-20.594z"/>
  <path d="m187.31 249.49l19.141 5.3755-4.2296 19.449-20.021-5.2697 5.1098-19.555z"/>
  <path d="m209.8 255.79s4.7666 1.3833 10.298 2.3533c5.5588 0.97574 8.8755 1.2472 8.8755 1.2472l-3.1174 19.266s-7.0546-0.76184-10.343-1.2954c-3.9812-0.64594-9.2766-1.9399-9.2766-1.9399l3.5638-19.631z"/>
  <path d="m232.14 259.71l17.656 0.2362-2.1849 19.403s-6.0935 0.46014-9.1403 0.41333c-3.0468-0.059082-9.1404-0.69275-9.1404-0.69275l2.8091-18.621v-0.7388z"/>
  <path d="m253.99 259.99s6.1673-0.046783 9.1621-0.069855c2.9948-0.023071 8.6287 0.48358 8.6287 0.48358l-1.9163 19.915s-5.9158-0.38522-8.8736-0.39319c-2.9579-0.00824-8.8737-0.20917-8.8737-0.20917l1.8727-19.727v3.36e-4z"/>
  <path d="m276.07 260.27s6.627 1.0938 9.6738 1.4564c3.0468 0.36224 9.318 2.7465 9.318 2.7465l-2.3625 19.509s-6.2424-1.1399-9.3635-1.6177c-3.1212-0.47815-9.3636-1.2494-9.3636-1.2494l2.0978-20.845z"/>
  <path d="m299.7 265.95s7.4548 1.4416 12.263 5.1815c2.654 2.0642 4.9466 5.8209 4.9466 5.8209l-4.1484 18.027s-1.1233-3.6675-4.8237-5.8246c-5.3891-3.1418-10.869-3.7888-10.869-3.7888l2.6313-19.416z"/>
  <path d="m309.24 305.01l-3.615 19.649-10.304 3.8381 1.6591-17.617 12.26-5.8696z"/>
  <path d="m292.47 312.78l-1.9635 17.703s-3.1212 1.7085-5.9302 3.3261c-2.8091 1.6181-4.994 3.8832-4.994 3.8832s-1.2485-12.62 3.4333-17.474c4.6818-4.8538 8.2059-7.4386 9.4544-7.4386z"/>
  <path d="m271.69 336.35s1.0253 4.901 2.5859 9.4312c1.5605 4.5305 4.7598 10.436 4.7598 10.436s-2.0288 3.7214-3.6674 8.737c-1.5152 4.6382-1.4045 8.8986-1.4045 8.8986l-8.1151-12.215c-1.4921-2.246-0.88446-6.0391 1.3374-12.618 2.497-7.3936 3.8796-11.698 4.5039-12.669z"/>
  <path d="m282.39 359.29s3.8235 3.6404 8.1931 6.7146c3.8134 2.6827 9.0515 5.6628 9.0515 5.6628s-1.3265 4.2065-1.9508 9.7077c-0.62421 5.5012 0 9.0603 0 9.0603s-5.6962-2.3457-11.47-6.2289c-5.604-3.7687-8.5052-6.9572-8.5052-6.9572s0.31213-4.2875 1.5606-9.1413 1.7664-5.8685 3.1212-8.818z"/>
  <path d="m303.93 373.2s5.6182 2.9931 11.548 4.6112c5.9303 1.6181 10.144 2.1841 10.144 2.1841l-3.5115 16.989s-4.6037-0.16165-10.534-1.7797-9.5197-3.4788-9.5197-3.4788-0.31213-4.2064 0.31207-9.0603c0.62427-4.8538 1.2485-9.465 1.5606-9.465z"/>
 </g>
 <g stroke-linecap="round" stroke-linejoin="round">
  <g stroke="#2e3436">
   <g fill="url(#c)">
    <path d="m340.6 204.29c-10.169 41.167-79.041 61.03-153.83 44.366-74.789-16.665-127.17-63.547-117.01-104.72 10.169-41.167 79.041-61.03 153.83-44.366 74.789 16.665 127.17 63.548 117.01 104.72z" stroke-width=".102"/>
    <path d="m340.6 198.32c-10.169 42.676-79.041 63.266-153.83 45.991-74.789-17.276-127.17-65.876-117.01-108.55 10.169-42.676 79.041-63.267 153.83-45.991s127.17 65.876 117.01 108.55z" stroke-width=".1"/>
   </g>
   <g fill="#fff">
    <path d="m169.78 169.88c0 13.132-17.686 23.777-39.504 23.777-21.817 0-39.503-10.645-39.503-23.777s17.686-23.777 39.503-23.777 39.504 10.646 39.504 23.777z" stroke-width=".087"/>
    <path d="m259.25 232.88c-4.5552 12.436-24.661 15.083-44.908 5.9114s-32.967-26.689-28.412-39.125c4.5551-12.436 24.661-15.083 44.908-5.911 20.247 9.1717 32.967 26.688 28.412 39.125z" stroke-width=".093"/>
    <g stroke-width=".099">
     <path d="m322.24 190.03c-3.293 9.1915-20.935 12.207-39.404 6.7359-18.469-5.4713-30.772-17.358-27.479-26.549 3.293-9.1915 20.935-12.208 39.404-6.7363 18.469 5.4713 30.772 17.358 27.479 26.55z"/>
     <path d="m184.04 120.04c-1.5235 9.0964-16.305 14.171-33.016 11.335-16.71-2.8364-29.022-12.51-27.498-21.606 1.5236-9.0968 16.305-14.172 33.016-11.335 16.71 2.8364 29.022 12.51 27.498 21.607z"/>
    </g>
    <path d="m271.47 130.3c-2.1954 9.3048-18.099 13.302-35.522 8.9271-17.423-4.3744-29.767-15.464-27.571-24.768 2.1955-9.3051 18.099-13.302 35.522-8.9276 17.423 4.3745 29.767 15.464 27.571 24.769z" stroke-width=".096"/>
   </g>
  </g>
  <g fill="#fff">
   <g stroke="#2e3436">
    <path d="m154.78 174.37c0 13.132-17.686 23.777-39.504 23.777-21.817 0-39.503-10.645-39.503-23.777s17.686-23.777 39.503-23.777 39.504 10.646 39.504 23.777z" mask="url(#g)" stroke-width=".087"/>
    <path d="m251.69 235.37c-4.5552 12.436-24.661 15.083-44.908 5.9113s-32.967-26.689-28.412-39.125c4.5551-12.436 24.661-15.083 44.908-5.911 20.247 9.1717 32.967 26.688 28.412 39.125z" mask="url(#f)" stroke-width=".093"/>
   </g>
   <path d="m311.15 189.15c-3.293 9.1915-20.935 12.207-39.404 6.7359-18.469-5.4712-30.772-17.358-27.479-26.549 3.293-9.1915 20.935-12.208 39.404-6.7363 18.469 5.4713 30.772 17.358 27.479 26.55z" mask="url(#d)" stroke="#f4f6f7" stroke-width=".099"/>
   <g stroke="#2e3436">
    <path d="m218.8 159.27c-2.008 5.9785-12.481 8.496-23.392 5.6227-10.911-2.8732-18.128-10.049-16.12-16.028 2.008-5.9785 12.481-8.4955 23.392-5.6222 10.911 2.8732 18.129 10.049 16.121 16.027z" stroke-width=".234"/>
    <path d="m166.72 121.08c-1.5235 9.0965-16.305 14.171-33.016 11.335-16.71-2.8364-29.022-12.51-27.498-21.606 1.5236-9.0968 16.305-14.172 33.016-11.335 16.71 2.8364 29.022 12.51 27.498 21.607z" mask="url(#h)" stroke-width=".099"/>
    <path d="m260.7 131.33c-2.1955 9.3048-18.099 13.302-35.522 8.9271-17.423-4.3744-29.767-15.464-27.571-24.768 2.1955-9.3051 18.099-13.302 35.522-8.9275s29.767 15.464 27.571 24.769z" mask="url(#e)" stroke-width=".096"/>
   </g>
  </g>
 </g>
</svg>
