<?xml version="1.0" encoding="UTF-8"?>
<svg viewBox="0 0 640 480" xmlns="http://www.w3.org/2000/svg">
 <g transform="rotate(64.152 298.69 298.27)">
  <path d="m242.14-14c-51.87 153.51-34.123 263.8-15.094 346.88 19.03 83.08 36.267 134.36 4.5313 235.06l5.2812 1.6562 0.9688-2.9375h-0.031296l1.4687-4.75v-0.03125l0.1563-0.5312 5.0937 1.5-0.1562 0.5625v0.03125l-1.4688 4.7812v0.03125l-0.9687 2.9375 7.3125 2.3125c2.0205-6.5942 3.8368-13.012 5.4688-19.25l103.41 24.562c-2.1655 8.7205-4.6011 17.62-7.375 26.688l5.125 1.625 1.4062-5.1562v-0.03125l0.9063-3.5312 5.1563 1.3438-0.9376 3.5625-1.4687 5.4062 5.8125 1.8125c41.674-132.24 16.456-230.65-1.5625-309.31-18.018-78.662-31.895-142.18 11.25-269.88l-5.9687-2.0312-0.0313 0.0938-5.0313-1.7188 0.0313-0.0625-6.625-2.25c-0.5498 1.6616-1.0624 3.2955-1.5937 4.9375l-100.97-33.625c0.5733-1.7806 1.1577-3.5502 1.75-5.3438l-6.4062-2.1562-0.75 2.5312-5.0938-1.5312 0.7812-2.7188-4.375-1.4688zm2.0938 9.3125l5.0938 1.4688-1.2813 4.4062v0.03125l-1.625 5.7812-5.125-1.4375 1.6563-5.8125v-0.03125l1.2812-4.4062zm-4.3438 15.406l5.125 1.375-0.9687 3.5312h0.031311l-1.7813 6.7188-5.125-1.3438 1.75-6.7188v-0.03125l0.9687-3.5312zm9 10.281l101.62 31.094c-8.2026 28.376-13.529 53.756-16.625 77l-103.75-18.344c3.6548-27.926 9.669-57.758 18.75-89.75zm-13.062 5.1875l5.1562 1.2812-0.5625 2.25-1.7187 6.9062h0.031204l-0.2812 1.125-5.1876-1.2188 0.2813-1.1562 1.7187-6.9375v-0.03125l0.5626-2.2188zm127.88 6.5938l5.0624 1.6562-0.5624 1.6562v0.03125l-1.9376 6.125-0.6874 2.25-5.0938-1.5625 0.7188-2.25v-0.03125l1.9374-6.1562v-0.03125h0.031311l0.5313-1.6875zm-131.66 8.9375l5.1875 1.2188-0.125 0.5v0.03125l-1.5312 6.6875v0.03125l-0.6876 3.0625-5.1874-1.125 0.6874-3.0938v-0.03125l1.5313-6.75v-0.03125l0.125-0.5zm126.88 6.3438l5.0937 1.5-1.375 4.6875v0.03125l-1.5937 5.4688-5.0937-1.4688 1.5624-5.5 0.0313-0.0312 1.375-4.6875zm-130.34 9.2812l5.1874 1.0938-1.0312 4.9375-1.0938 5.4375-5.2187-1.0312 1.0937-5.4688 0.0313-0.0312 1.0313-4.9375zm125.94 6.0938l5.125 1.4062-0.3124 1.0625h0.031189l-1.5312 5.7188v0.03125l-0.875 3.4375-5.1563-1.3438 0.875-3.4375 1.5313-5.75v-0.03125l0.3124-1.0938zm-129.09 9.5625l5.2187 1-0.4374 2.25-1.1563 6.3125-0.3125 1.875-5.2188-0.9062 0.3126-1.875v-0.03125l1.1562-6.3437v-0.03125l0.4375-2.25zm125.09 5.9375l5.1563 1.2812-0.6563 2.625v0.03125l-1.2812 5.4375v0.03125l-0.4688 2.1562-5.1874-1.1562 0.4687-2.1875 0.0313-0.0312 1.2812-5.5v-0.03125l0.6562-2.6562zm-127.91 9.8437l5.2188 0.8438-0.8438 5.3125v0.03125l-0.8125 5.1562-5.25-0.8125 0.8125-5.1875v-0.03125l0.875-5.3125zm124.31 5.7812l5.2187 1.0938-0.7187 3.4062v0.03125l-1.0625 5.25-0.3125 1.6875-5.2187-0.9688 0.3124-1.7188v-0.03125l1.0626-5.2812v-0.03125l0.7187-3.4375zm-126.78 10.031l5.2813 0.75-0.25 1.6562v0.03125l-0.8125 5.9063v0.03125l-0.3438 2.875-5.2812-0.6875 0.375-2.875v-0.03125l0.7812-5.9375v-0.03125l0.25-1.6875zm123.72 5.7188l5.2188 0.9062-0.625 3.4375h0.031189l-0.8438 5.0625v0.03125l-0.3124 1.9062-5.25-0.8125 0.3124-1.9375v-0.03125l0.8438-5.0937v-0.03125l0.625-3.4375zm-125.78 10.156l5.2812 0.625-0.4062 3.4688v0.03125l-0.5938 5.6875v0.03125l-0.125 1.2812-5.3125-0.5 0.125-1.3438h0.031296l0.5937-5.75v-0.03125l0.4063-3.5zm123.22 5.6562l5.25 0.75-0.4063 2.75h0.031311l-0.6563 4.875v0.03125l-0.3437 2.8438-5.2813-0.6562 0.3438-2.8438v-0.03125l0.6562-4.9062v-0.03125l0.4063-2.7812zm-124.88 10.281l5.3125 0.4688-0.4062 4.5938v0.03125l-0.4376 5.4688v0.03125l-0.0312 0.4062-5.3125-0.3438 0.0313-0.4375v-0.03125l0.4374-5.5312v-0.03125l0.4063-4.625zm10.594 4.3125l104.41 11.938c-1.8661 25.024-1.1063 47.667 1.2187 69.25l-105.12 5.9375c-2.3067-26.793-2.8897-55.694-0.5-87.125zm112.28 1.3125l5.2813 0.5938-0.1563 1.4062v0.03125l-0.4375 4.6562v0.03125l-0.375 4.375-5.2812-0.4375 0.375-4.4062v-0.03125l0.4374-4.7188v-0.03125l0.1563-1.4688zm-124.09 10.344l5.3124 0.3125-0.3124 5.0938v0.03125l-0.25 5.2812v0.15625l-5.3126-0.2188v-0.1875l0.25-5.3125v-0.03125l0.3126-5.125zm122.72 5.6875l5.3125 0.3125-0.25 4.0938v0.03125l-0.2188 4.4375v0.03125l-0.0624 1.9688-5.3126-0.2188 0.0626-2v-0.03125l0.2187-4.5v-0.03125l0.25-4.0938zm-123.5 10.312l5.3125 0.1562-0.1562 4.9688v0.03125l-0.0626 5.5938-5.3124-0.0625 0.0624-5.6562v-0.03125l0.1563-5zm122.81 5.6875l5.3125 0.1562-0.0625 1.5h0.031189l-0.0624 4.2812v4.75l-5.3126 0.0312v-4.7812l0.0313-4.375v-0.03125l0.0625-1.5312zm-123.09 10.344h5.3126l0.0312 9.1875v0.0625l0.0312 1.3125-5.3124 0.125-0.0313-1.375v-0.03125l-0.0313-9.2812zm128.38 5.5938l0.1876 6.8438v0.0625l0.1874 3.6875-5.3124 0.25-0.1876-3.75v-0.0625l-0.1874-6.875 5.3124-0.1562zm-122.88 10.281l0.0626 3.0312v0.0625l0.3124 7.4688-5.3124 0.2188-0.3126-7.5312v-0.03125l-0.0624-3.0938 5.3124-0.125zm123.5 5.5625l0.5313 7.1875v0.0625l0.2813 3.2812-5.2813 0.4688-0.3125-3.3125v-0.0625l-0.5-7.25 5.2812-0.375zm-122.84 10.281l0.3437 6v0.0625l0.375 4.5-5.3124 0.4062-0.3438-4.5625v-0.03125l-0.375-6.0625 5.3125-0.3125zm124.16 5.5l0.8124 7.0938h-0.031189l0.4688 3.4062-5.2813 0.6875-0.4375-3.4375v-0.0625l-0.8125-7.125 5.2813-0.5625zm-123.03 10.312l0.7813 8.2188v0.03125l0.25 2.2812-5.2813 0.5938-0.25-2.3125v-0.0625l-0.7813-8.25 5.2813-0.5zm124.97 5.4062l1 6.5312v0.03125l0.625 3.9062-5.2187 0.8438-0.6563-3.9062v-0.0625l-1-6.5625 5.25-0.7812zm-10.625 7.75c3.224 20.195 7.5541 39.86 12.156 60.156 1.2008 5.2958 2.4227 10.642 3.6563 16.062l-103.56 24c-1.2215-5.276-2.477-10.618-3.7187-16.094-5.0737-22.376-10.01-46.372-13.562-72.406l105.03-11.719zm-112.72 2.6562l0.125 1.1562v0.03125l1.0937 8.5312v0.0625l0.0938 0.6875-5.25 0.75-0.0938-0.75h-0.031189v-0.03125l-1.0938-8.625v-0.03125l-0.125-1.1875 5.2813-0.5938zm125.88 5.25l1.0313 5.6875v0.0625l0.9062 4.6562-5.2188 1.0312-0.9062-4.7188v-0.03125l-1.0625-5.75 5.25-0.9375zm-123.81 10.469l0.3438 2.4375v0.03125l1.2812 8-5.25 0.8125-1.2812-8.0312v-0.03125l-0.3438-2.4688 5.25-0.75zm126.81 5.125l0.9687 4.6875v0.03125l1.2188 5.6562-5.1875 1.125-1.2187-5.6875h-0.031311v-0.03125l-0.9687-4.7188 5.2187-1.0625zm-124.31 10.562l0.5312 3.1562v0.03125l1.3126 7.25-5.2188 0.9375-1.3125-7.2812-0.0313-0.0312-0.5312-3.1875 5.25-0.875zm127.66 4.9688l0.8126 3.5625 1.5937 6.7812-5.1875 1.2188-1.5625-6.7812v-0.03125h-0.031311l-0.7812-3.5625 5.1562-1.1875zm-124.81 10.656l0.6562 3.4375v0.03125l1.4062 6.9375-5.1874 1.0312-1.4063-6.9375v-0.03125h-0.031311l-0.6562-3.4688 5.2188-1zm128.44 4.8438l2.3126 9.5625 0.1874 0.75-5.1874 1.25-0.1563-0.75-2.3125-9.5938 5.1562-1.2188zm-125.28 10.719l0.7188 3.3438 1.5312 7.0312-5.1875 1.1562-1.5625-7.0625-0.6875-3.3438 5.1875-1.125zm129.03 4.7812l2.0313 8.4688h0.031311l0.4374 1.875-5.1874 1.2188-0.4376-1.8438v-0.03125l-2.0624-8.4375 5.1874-1.25zm-125.62 10.781l2.3126 10.344-2.5938 0.5938-2.5938 0.5938v-0.03125l-2.3124-10.344 5.1874-1.1562zm129.34 4.7188l1.75 7.5 0.0312 0.0312 0.625 2.8438-5.1562 1.1875-0.6562-2.8438-1.7813-7.5 5.1875-1.2188zm-125.84 10.812l2.1876 9.5312 0.1874 0.8438-5.1874 1.1875-0.1876-0.8438v-0.03125l-2.1874-9.5 5.1874-1.1875zm129.44 4.7812l1.4687 6.7188v0.03125l0.7813 3.6562-5.2188 1.0938-0.75-3.625v-0.03125l-1.4688-6.7188 5.1876-1.125zm-11.906 4.4062c5.5195 26.275 10.402 54.2 12.594 84.438l-104.81 9c-1.8391-24.854-6.46-48.549-12.063-73.594l104.28-19.844zm-114 6.375l1.9375 8.5 0.4062 1.875-5.1874 1.1562-0.4063-1.875-1.9375-8.5 5.1875-1.1562zm129.22 4.875l1.25 6.2188v0.03125l0.7813 4.2188-5.2187 0.9375-0.7813-4.1562v-0.03125l-1.2187-6.1875 5.1874-1.0312zm-125.75 10.719l0.0313 0.125v0.03125h0.031311l1.5 7.1875v0.03125l0.625 3.0625-5.1876 1.0625-0.625-3.0312v-0.03125l-1.5312-7.1562v-0.03125l-0.0312-0.125 5.1874-1.125zm128.72 5l1.0312 6.0938v0.03125l0.6876 4.4062-5.25 0.8125-0.6876-4.4062h0.031311l-1.0625-6.0312 5.25-0.9062zm-125.47 10.656l1.1876 6.125v0.03125l0.7812 4.3438-5.25 0.9375-0.7812-4.3438h0.031189l-1.1875-6.0625 5.2187-1.0312zm127.97 5.1875l0.9062 6.375v0.03125l0.5 4.1875-5.2812 0.625-0.5-4.125v-0.03125l-0.875-6.3438 5.25-0.7188zm-125.09 10.562l0.8126 4.875v0.03125l0.8437 5.6562-5.25 0.7812-0.8437-5.5938v-0.03125l-0.8126-4.8438 5.25-0.875zm127.09 5.3438l0.75 7.1875v0.0625l0.2812 3.375-5.3124 0.4375-0.2813-3.375h0.031311l-0.75-7.1562 5.2812-0.5312zm-124.69 10.531l0.5 3.625v0.03125l0.7813 6.9375-5.2813 0.5938-0.7813-6.875v-0.03125l-0.5-3.5938 5.2813-0.6875zm126.16 5.4375l0.5312 8.6875v0.0625l0.0938 1.9375-5.3126 0.2188-0.0937-1.9062v-0.03125l-0.5313-8.625 5.3126-0.3438zm-124.34 10.5l0.2188 2.5 0.0312 0.0312v0.03125l0.5312 7.4688v0.0625l0.0313 0.5938-5.2813 0.2812-0.0312-0.5625v-0.03125l-0.5625-7.375v-0.03125l-0.25-2.4688 5.3125-0.5zm125.19 5.5l0.0625 1.6875v0.0625l0.1875 8.9062-5.3125 0.125-0.1875-8.8438v-0.0625l-0.0625-1.6562 5.3125-0.2188zm-124.09 10.5l0.0937 1.625v0.0625l0.2187 7.625v1.4375l-5.3124 0.0312v-1.4063l-0.2188-7.4688v-0.0625l-0.0938-1.5625 5.3126-0.2812zm119.06 5.5312l5.3126 0.0312v4.3438l-0.0313 0.0312-0.0625 4.7812v0.03125l-0.0312 1.5-5.3126-0.1562 0.0313-1.4688v-0.03125l0.0625-4.7188v-0.03125l0.0312-4.3125zm-6.1874 6.7188c0.27808 27.583-1.9283 57.039-8 88.844l-104.5-18.156c5.4-25.621 7.5059-48.451 7.3437-69.938l105.16-0.75zm-112.53 3.8125v1.0936l-0.1563 7.8125v0.03125l-0.0624 1.8125-5.3126-0.2188 0.0626-1.75v-0.03125l0.1562-7.7188v-1l5.3125-0.0312zm118.44 5.3125l5.3125 0.2188-0.125 2.9375-0.2187 4.9688v0.03125l-0.1563 2.7188-5.3125-0.3125 0.1562-2.6875v-0.03125l0.2188-4.9062v-0.03125l0.125-2.9062zm-124.22 10.5l5.2813 0.2812-0.0313 0.8125v0.03125l-0.25 4.0312v0.03125l-0.3437 4.0312v0.03125l-0.1563 1.75-5.2812-0.5 0.1562-1.6875v-0.03125l0.3126-3.9688v-0.03125l0.25-3.9688v-0.03125l0.0624-0.7812zm123.38 5.3438l5.3126 0.375-0.1563 2.0938v0.03125l-0.4063 5.1875v0.03125l-0.3124 3.3125-5.2813-0.5 0.2813-3.2812v-0.03125l0.4062-5.0938v-0.03125l0.1562-2.0938zm-124.69 10.406l5.2812 0.5625-0.125 1.1562v0.0625l-0.5 4.125v0.03125l-0.5312 4.1875-0.0313 0.0312-0.1563 1.0625-5.25-0.7812 0.1563-1v-0.03125l0.5625-4.125v-0.03125l0.4688-4.0625v-0.0625l0.125-1.125zm123.31 5.4062l5.3126 0.5312-0.2188 1.9375v0.03125l-0.5938 5.375v0.03125l-0.4062 3.25-5.25-0.6562 0.375-3.2188v-0.03125l0.5938-5.3125v-0.03125l0.1874-1.9062zm-125.41 10.25l5.25 0.8438-0.3438 2.1875v0.03125l-0.75 4.2812v0.03125l-0.75 4-5.2187-0.9688 0.7187-3.9688v-0.03125l0.75-4.2188v-0.03125l0.3438-2.1562zm123.56 5.5l5.2813 0.6875-0.3126 2.4688h-0.031189l-0.7812 5.625-0.375 2.5-5.25-0.8125 0.375-2.4375v-0.03125l0.7812-5.5625v-0.03125l0.3125-2.4062zm-126.41 10.062l5.1876 1.0938-0.8438 3.9375v0.03125l-1.0312 4.4688v0.03125l-0.4688 1.9688-5.1875-1.2188 0.4687-1.9375 0.0313-0.0625 1-4.375v-0.03125l0.8437-3.9062zm124.09 5.625l5.25 0.8438-0.5938 3.7188v0.03125l-1 5.8438-0.0312 0.0312-0.1562 0.9062-5.2188-0.9375 0.1562-0.9062v-0.03125l1-5.7812v-0.03125l0.5938-3.6875zm-127.69 9.8125l5.1563 1.3125-0.5 1.9375v0.03125l-1.25 4.5938v0.03125l-1.0626 3.7188-5.0937-1.4375 1.0313-3.6875v-0.03125l1.2187-4.5312v-0.03125l0.5-1.9062zm124.97 5.8125l5.2188 1.0312-1.0938 5.75v0.03125l-0.9687 4.6562-5.1875-1.0625 0.9375-4.625v-0.03125l1.0937-5.75zm-3.125 15.594l5.1876 1.0938-0.5 2.4062-1.4063 6.2812-0.4063 1.75-5.1562-1.1875 0.375-1.7188v-0.03125l1.4062-6.2188v-0.03125l0.5-2.3438zm-3.5 15.469l5.1876 1.25-1.4376 5.875v0.03125l-1.125 4.4375-5.1562-1.2812 1.125-4.4375 1.4062-5.875z" fill="#00007f" fill-rule="evenodd" stroke-width="141.73"/>
 </g>
</svg>
